<svg width="512" height="682" viewBox="0 0 512 682" fill="none" xmlns="http://www.w3.org/2000/svg">
<path d="M478.948 680.071C495.614 674.738 506.014 661.405 510.281 639.805C511.348 634.871 511.748 542.605 511.748 340.471C511.614 101.805 511.348 46.7379 509.881 39.9379C506.148 22.6046 497.214 9.80456 484.414 3.53789C478.948 0.871224 475.748 0.337891 466.414 0.337891C453.614 0.337891 444.814 2.60456 431.481 9.40456C417.614 16.3379 32.5476 280.338 23.6143 288.871C14.6809 297.538 6.14759 310.338 2.81426 319.938C-0.78574 330.338 -0.38574 353.671 3.48093 363.671C7.61426 374.071 13.6143 382.871 23.0809 392.205C28.6809 397.938 86.6809 438.338 220.948 530.205C325.348 601.671 416.281 663.538 423.081 667.671C444.014 680.205 464.414 684.738 478.948 680.071Z" fill="#F4F6F8"/>
</svg>
