<svg width="512" height="682" viewBox="0 0 512 682" fill="none" xmlns="http://www.w3.org/2000/svg">
<path d="M33.1333 2.13333C16.4666 7.46666 6.06665 20.8 1.79998 42.4C0.733313 47.3333 0.333313 139.6 0.333313 341.733C0.466646 580.4 0.733313 635.467 2.19998 642.267C5.93331 659.6 14.8666 672.4 27.6666 678.667C33.1333 681.333 36.3333 681.867 45.6666 681.867C58.4666 681.867 67.2666 679.6 80.6 672.8C94.4667 665.867 479.533 401.867 488.467 393.333C497.4 384.667 505.933 371.867 509.267 362.267C512.867 351.867 512.467 328.533 508.6 318.533C504.467 308.133 498.467 299.333 489 290C483.4 284.267 425.4 243.867 291.133 152C186.733 80.5333 95.8 18.6667 89 14.5333C68.0666 2 47.6666 -2.53334 33.1333 2.13333Z" fill="#1B2240"/>
</svg>
